<svg width="31" height="34" viewBox="0 0 31 34" fill="none" xmlns="http://www.w3.org/2000/svg">
<path fill-rule="evenodd" clip-rule="evenodd" d="M9.00764 6.97832C10.2584 5.1081 11.3941 3.66636 12.4707 2.67131C13.6334 1.59665 14.784 0.990741 15.9836 1.00011C17.1859 1.00949 18.3029 1.63561 19.3998 2.7184C20.4109 3.71641 21.4514 5.14767 22.5776 6.98331C22.7988 6.84297 23.0221 6.69589 23.2477 6.54206C24.8031 5.48149 27.0133 6.15176 27.4233 7.97817C29.2566 16.1451 32.6055 34.0651 26.4786 33.2533C18.5555 32.2035 13.3015 32.4555 4.78506 33.2533C-1.87543 33.8773 1.88214 15.6496 3.83615 7.67552C4.26358 5.93122 6.34641 5.25726 7.85396 6.25215C8.24556 6.51057 8.6298 6.75269 9.00764 6.97832ZM9.89101 7.48171C11.1091 5.66533 12.1816 4.31648 13.1642 3.40831C14.2385 2.41541 15.1483 2.00139 15.9756 2.00785C16.8003 2.01429 17.6766 2.43976 18.6822 3.43243C19.6091 4.34732 20.5993 5.69875 21.7084 7.50631C17.5562 9.86379 14.0898 9.75519 9.89101 7.48171ZM15.5794 10.2339C12.8647 10.151 10.2138 9.02021 7.29035 7.09097C6.29329 6.43297 5.0639 6.93561 4.82431 7.91335C3.84963 11.8909 2.44013 18.3698 2.095 23.7526C1.92117 26.4637 2.02701 28.7783 2.52218 30.3391C2.76772 31.113 3.08124 31.6109 3.41643 31.8977C3.72048 32.1579 4.10945 32.3043 4.68937 32.25C13.2385 31.4491 18.5799 31.19 26.6134 32.2544C27.1098 32.3202 27.4276 32.2003 27.6818 31.9787C27.9748 31.7233 28.2644 31.2571 28.4958 30.5021C28.9605 28.9858 29.0697 26.7144 28.9207 24.0383C28.625 18.726 27.3454 12.2716 26.4307 8.19702C26.2048 7.19066 24.894 6.64277 23.8241 7.3723C20.9454 9.3352 18.3117 10.3172 15.5794 10.2339Z" stroke="white"/>
</svg>
