<svg width="175" height="37" viewBox="0 0 175 37" fill="none" xmlns="http://www.w3.org/2000/svg">
<path d="M1.56 36C1.208 36 0.92 35.888 0.696 35.664C0.472 35.44 0.36 35.152 0.36 34.8V3.6C0.36 3.248 0.472 2.96 0.696 2.736C0.92 2.512 1.208 2.4 1.56 2.4H7.752C8.104 2.4 8.392 2.512 8.616 2.736C8.84 2.96 8.952 3.248 8.952 3.6V15.168H20.808V3.6C20.808 3.248 20.92 2.96 21.144 2.736C21.368 2.512 21.656 2.4 22.008 2.4H28.2C28.552 2.4 28.84 2.512 29.064 2.736C29.288 2.96 29.4 3.248 29.4 3.6V34.8C29.4 35.152 29.288 35.44 29.064 35.664C28.84 35.888 28.552 36 28.2 36H22.008C21.656 36 21.368 35.888 21.144 35.664C20.92 35.44 20.808 35.152 20.808 34.8V22.848H8.952V34.8C8.952 35.152 8.84 35.44 8.616 35.664C8.392 35.888 8.104 36 7.752 36H1.56ZM47.4056 36.48C44.7176 36.48 42.4456 36.048 40.5896 35.184C38.7656 34.32 37.3576 33.088 36.3656 31.488C35.4056 29.856 34.8616 27.92 34.7336 25.68C34.7016 25.04 34.6856 24.32 34.6856 23.52C34.6856 22.688 34.7016 21.968 34.7336 21.36C34.8616 19.088 35.4376 17.152 36.4616 15.552C37.4856 13.952 38.9096 12.72 40.7336 11.856C42.5896 10.992 44.8136 10.56 47.4056 10.56C50.0296 10.56 52.2536 10.992 54.0776 11.856C55.9336 12.72 57.3736 13.952 58.3976 15.552C59.4216 17.152 59.9976 19.088 60.1256 21.36C60.1576 21.968 60.1736 22.688 60.1736 23.52C60.1736 24.32 60.1576 25.04 60.1256 25.68C59.9976 27.92 59.4376 29.856 58.4456 31.488C57.4856 33.088 56.0776 34.32 54.2216 35.184C52.3976 36.048 50.1256 36.48 47.4056 36.48ZM47.4056 30.624C48.8456 30.624 49.8856 30.192 50.5256 29.328C51.1976 28.464 51.5816 27.168 51.6776 25.44C51.7096 24.96 51.7256 24.32 51.7256 23.52C51.7256 22.72 51.7096 22.08 51.6776 21.6C51.5816 19.904 51.1976 18.624 50.5256 17.76C49.8856 16.864 48.8456 16.416 47.4056 16.416C45.9976 16.416 44.9576 16.864 44.2856 17.76C43.6136 18.624 43.2456 19.904 43.1816 21.6C43.1496 22.08 43.1336 22.72 43.1336 23.52C43.1336 24.32 43.1496 24.96 43.1816 25.44C43.2456 27.168 43.6136 28.464 44.2856 29.328C44.9576 30.192 45.9976 30.624 47.4056 30.624ZM76.7025 36.48C74.0145 36.48 71.7425 36.048 69.8865 35.184C68.0625 34.32 66.6545 33.088 65.6625 31.488C64.7025 29.856 64.1585 27.92 64.0305 25.68C63.9985 25.04 63.9825 24.32 63.9825 23.52C63.9825 22.688 63.9985 21.968 64.0305 21.36C64.1585 19.088 64.7345 17.152 65.7585 15.552C66.7825 13.952 68.2065 12.72 70.0305 11.856C71.8865 10.992 74.1105 10.56 76.7025 10.56C79.3265 10.56 81.5505 10.992 83.3745 11.856C85.2305 12.72 86.6705 13.952 87.6945 15.552C88.7185 17.152 89.2945 19.088 89.4225 21.36C89.4545 21.968 89.4705 22.688 89.4705 23.52C89.4705 24.32 89.4545 25.04 89.4225 25.68C89.2945 27.92 88.7345 29.856 87.7425 31.488C86.7825 33.088 85.3745 34.32 83.5185 35.184C81.6945 36.048 79.4225 36.48 76.7025 36.48ZM76.7025 30.624C78.1425 30.624 79.1825 30.192 79.8225 29.328C80.4945 28.464 80.8785 27.168 80.9745 25.44C81.0065 24.96 81.0225 24.32 81.0225 23.52C81.0225 22.72 81.0065 22.08 80.9745 21.6C80.8785 19.904 80.4945 18.624 79.8225 17.76C79.1825 16.864 78.1425 16.416 76.7025 16.416C75.2945 16.416 74.2545 16.864 73.5825 17.76C72.9105 18.624 72.5425 19.904 72.4785 21.6C72.4465 22.08 72.4305 22.72 72.4305 23.52C72.4305 24.32 72.4465 24.96 72.4785 25.44C72.5425 27.168 72.9105 28.464 73.5825 29.328C74.2545 30.192 75.2945 30.624 76.7025 30.624ZM103.503 36.48C101.967 36.48 100.575 36.24 99.3274 35.76C98.1114 35.248 97.0554 34.512 96.1594 33.552C95.2954 32.56 94.6234 31.376 94.1434 30C93.6634 28.592 93.3914 26.992 93.3274 25.2C93.2954 24.56 93.2794 24 93.2794 23.52C93.2794 23.008 93.2954 22.448 93.3274 21.84C93.3914 20.112 93.6634 18.56 94.1434 17.184C94.6234 15.808 95.2954 14.624 96.1594 13.632C97.0234 12.64 98.0794 11.888 99.3274 11.376C100.575 10.832 101.967 10.56 103.503 10.56C105.103 10.56 106.479 10.832 107.631 11.376C108.783 11.888 109.759 12.56 110.559 13.392V3.12C110.559 2.768 110.671 2.48 110.895 2.256C111.119 2.032 111.407 1.92 111.759 1.92H117.615C117.935 1.92 118.207 2.032 118.431 2.256C118.687 2.48 118.815 2.768 118.815 3.12V34.8C118.815 35.152 118.687 35.44 118.431 35.664C118.207 35.888 117.935 36 117.615 36H112.191C111.839 36 111.551 35.888 111.327 35.664C111.103 35.44 110.991 35.152 110.991 34.8V33.264C110.223 34.192 109.231 34.96 108.015 35.568C106.799 36.176 105.295 36.48 103.503 36.48ZM106.095 30.048C107.183 30.048 108.031 29.824 108.639 29.376C109.279 28.896 109.743 28.288 110.031 27.552C110.351 26.816 110.527 26.016 110.559 25.152C110.591 24.512 110.607 23.904 110.607 23.328C110.607 22.752 110.591 22.16 110.559 21.552C110.527 20.752 110.351 20.016 110.031 19.344C109.711 18.64 109.231 18.08 108.591 17.664C107.951 17.216 107.119 16.992 106.095 16.992C105.039 16.992 104.191 17.216 103.551 17.664C102.943 18.112 102.511 18.72 102.255 19.488C101.999 20.256 101.839 21.104 101.775 22.032C101.679 23.024 101.679 24.016 101.775 25.008C101.839 25.936 101.999 26.784 102.255 27.552C102.511 28.32 102.943 28.928 103.551 29.376C104.191 29.824 105.039 30.048 106.095 30.048ZM125.673 36C125.321 36 125.033 35.888 124.809 35.664C124.585 35.44 124.473 35.152 124.473 34.8V12.24C124.473 11.888 124.585 11.6 124.809 11.376C125.033 11.152 125.321 11.04 125.673 11.04H131.337C131.657 11.04 131.929 11.152 132.153 11.376C132.409 11.6 132.537 11.888 132.537 12.24V34.8C132.537 35.152 132.409 35.44 132.153 35.664C131.929 35.888 131.657 36 131.337 36H125.673ZM125.625 7.44C125.273 7.44 124.985 7.328 124.761 7.104C124.537 6.88 124.425 6.592 124.425 6.24V1.968C124.425 1.616 124.537 1.328 124.761 1.104C124.985 0.847999 125.273 0.719999 125.625 0.719999H131.337C131.689 0.719999 131.977 0.847999 132.201 1.104C132.457 1.328 132.585 1.616 132.585 1.968V6.24C132.585 6.592 132.457 6.88 132.201 7.104C131.977 7.328 131.689 7.44 131.337 7.44H125.625ZM149.68 36.48C145.904 36.48 142.896 35.456 140.656 33.408C138.416 31.36 137.248 28.32 137.152 24.288C137.152 24.064 137.152 23.776 137.152 23.424C137.152 23.072 137.152 22.8 137.152 22.608C137.248 20.08 137.808 17.92 138.832 16.128C139.888 14.304 141.328 12.928 143.152 12C145.008 11.04 147.168 10.56 149.632 10.56C152.448 10.56 154.768 11.12 156.592 12.24C158.448 13.36 159.84 14.88 160.768 16.8C161.696 18.72 162.16 20.912 162.16 23.376V24.528C162.16 24.88 162.032 25.168 161.776 25.392C161.552 25.616 161.28 25.728 160.96 25.728H145.6C145.6 25.76 145.6 25.808 145.6 25.872C145.6 25.936 145.6 26 145.6 26.064C145.632 26.992 145.792 27.84 146.08 28.608C146.368 29.376 146.816 29.984 147.424 30.432C148.032 30.88 148.768 31.104 149.632 31.104C150.272 31.104 150.8 31.008 151.216 30.816C151.664 30.592 152.032 30.352 152.32 30.096C152.608 29.808 152.832 29.568 152.992 29.376C153.28 29.056 153.504 28.864 153.664 28.8C153.856 28.704 154.144 28.656 154.528 28.656H160.48C160.8 28.656 161.056 28.752 161.248 28.944C161.472 29.104 161.568 29.344 161.536 29.664C161.504 30.208 161.232 30.864 160.72 31.632C160.208 32.4 159.456 33.168 158.464 33.936C157.504 34.672 156.288 35.28 154.816 35.76C153.344 36.24 151.632 36.48 149.68 36.48ZM145.6 20.976H153.712V20.88C153.712 19.856 153.552 18.96 153.232 18.192C152.944 17.424 152.48 16.832 151.84 16.416C151.232 16 150.496 15.792 149.632 15.792C148.768 15.792 148.032 16 147.424 16.416C146.848 16.832 146.4 17.424 146.08 18.192C145.76 18.96 145.6 19.856 145.6 20.88V20.976ZM167.62 36C167.268 36 166.98 35.888 166.756 35.664C166.532 35.44 166.42 35.152 166.42 34.8V28.704C166.42 28.384 166.532 28.112 166.756 27.888C166.98 27.632 167.268 27.504 167.62 27.504H173.668C174.02 27.504 174.308 27.632 174.532 27.888C174.788 28.112 174.916 28.384 174.916 28.704V34.8C174.916 35.152 174.788 35.44 174.532 35.664C174.308 35.888 174.02 36 173.668 36H167.62Z" fill="white"/>
</svg>
