<svg width="21" height="34" viewBox="0 0 21 34" fill="none" xmlns="http://www.w3.org/2000/svg">
<path fill-rule="evenodd" clip-rule="evenodd" d="M17.693 7.89112C17.693 11.697 14.5859 14.7822 10.7531 14.7822C6.92028 14.7822 3.81317 11.697 3.81317 7.89112C3.81317 4.08526 6.92028 1 10.7531 1C14.5859 1 17.693 4.08526 17.693 7.89112ZM17.0268 7.89112C17.0268 11.3316 14.218 14.1207 10.7531 14.1207C7.28823 14.1207 4.4794 11.3316 4.4794 7.89112C4.4794 4.45062 7.28823 1.66155 10.7531 1.66155C14.218 1.66155 17.0268 4.45062 17.0268 7.89112Z" stroke="white"/>
<path fill-rule="evenodd" clip-rule="evenodd" d="M2.85817 16.4688C3.13821 15.3238 4.50282 14.8814 5.49053 15.5345C9.22788 18.0056 11.9433 18.2066 15.5761 15.7248C16.5951 15.0286 18.0432 15.4686 18.3118 16.6675C19.513 22.0286 21.707 33.7921 17.6929 33.2592C12.5019 32.5701 9.05958 32.7355 3.47987 33.2592C-0.883899 33.6688 1.57795 21.7033 2.85817 16.4688ZM5.12127 16.0851C7.0366 17.3515 8.77341 18.0939 10.552 18.1482C12.3421 18.2029 14.0677 17.5583 15.9537 16.2698C16.6547 15.7909 17.5135 16.1505 17.6615 16.8112C18.2608 19.4859 19.0992 23.7228 19.2929 27.21C19.3905 28.9668 19.319 30.4578 19.0145 31.4532C18.8629 31.9488 18.6731 32.2548 18.4812 32.4224C18.3147 32.5679 18.1064 32.6467 17.7812 32.6035C12.5178 31.9048 9.01833 32.0748 3.41717 32.6006C3.03722 32.6362 2.78238 32.5401 2.58318 32.3693C2.36357 32.181 2.15816 31.8542 1.99729 31.3462C1.67287 30.3216 1.60353 28.8022 1.71742 27.0225C1.94353 23.489 2.867 19.236 3.50558 16.6249C3.66256 15.9831 4.46802 15.6532 5.12127 16.0851Z" stroke="white"/>
</svg>
